<svg version="1.1" id="Layer_1" xmlns="http://www.w3.org/2000/svg" xmlns:xlink="http://www.w3.org/1999/xlink" x="0px" y="0px"
	 width="100%" viewBox="0 0 726 616" enable-background="new 0 0 726 616" xml:space="preserve">
<path fill="none" opacity="0.0" stroke="none" 
	d="
M437.000000,617.000000 
	C291.333344,617.000000 146.166672,617.000000 1.000000,617.000000 
	C1.000000,411.666656 1.000000,206.333328 1.000000,1.000000 
	C243.000000,1.000000 485.000000,1.000000 727.000000,1.000000 
	C727.000000,206.333328 727.000000,411.666656 727.000000,617.000000 
	C630.500000,617.000000 534.000000,617.000000 437.000000,617.000000 
M470.151367,447.286926 
	C469.793762,446.787445 469.436157,446.287933 468.958008,445.106934 
	C466.144775,440.225647 463.299866,435.362274 460.527679,430.457764 
	C458.007660,425.999420 453.426880,421.364746 453.692413,417.050140 
	C453.958130,412.732147 459.092224,408.707489 462.109650,404.566833 
	C465.177521,400.356934 468.266510,396.162415 472.063019,390.983337 
	C466.504333,390.983337 462.306366,390.983337 457.734253,390.983337 
	C454.744812,394.926971 451.418030,399.272247 448.139343,403.653442 
	C444.944733,407.922241 441.799316,412.227814 437.934357,417.462524 
	C437.934357,411.760834 437.934357,407.446564 437.934357,403.132324 
	C437.934357,398.860291 437.934357,394.588257 437.934357,389.675385 
	C432.982330,390.152405 428.703430,390.564575 424.123749,391.005737 
	C424.349854,392.503143 424.543823,393.787659 424.455933,395.958984 
	C424.455933,415.526154 424.455933,435.093292 424.455933,455.425598 
	C429.218384,454.822235 433.082916,454.332611 437.728058,453.509766 
	C437.789978,450.359222 438.224701,447.162048 437.837769,444.067627 
	C436.980560,437.211578 439.318909,431.848969 444.350861,427.675079 
	C448.489807,434.781952 452.646637,441.919525 456.907745,449.656372 
	C457.252014,450.130280 457.596283,450.604187 457.992828,451.012878 
	C457.992828,451.012878 457.913727,451.039886 458.026672,451.570282 
	C458.291382,451.785156 458.556122,452.000031 458.789307,452.109009 
	C458.789307,452.109009 458.708466,452.184357 458.817413,452.977020 
	C463.703339,453.865784 468.589264,454.754547 473.475220,455.643311 
	C473.627319,455.141052 473.779449,454.638794 473.931549,454.136536 
	C473.487610,453.319672 473.043671,452.502838 472.405853,451.298309 
	C472.405853,451.298309 472.069885,451.024445 471.982758,450.469635 
	C471.715454,450.242462 471.448151,450.015259 471.204712,449.896454 
	C471.204712,449.896454 471.290466,449.826050 471.229034,449.224365 
	C470.868652,448.763824 470.508270,448.303284 470.112457,447.931793 
	C470.112457,447.931793 470.207489,447.919556 470.151367,447.286926 
M427.040833,492.367737 
	C427.104645,491.924866 427.168427,491.481995 427.660126,491.032776 
	C427.660126,491.032776 428.052521,490.861969 428.947388,490.960541 
	C431.694550,490.960541 434.441681,490.960541 437.537750,490.960541 
	C437.425079,489.041473 437.343689,487.654999 437.243408,485.947510 
	C431.152008,485.947510 425.413666,485.847229 419.681641,485.994324 
	C417.210205,486.057770 414.751953,486.633118 412.147858,487.686737 
	C412.460663,488.711884 412.773468,489.737000 413.956787,490.948395 
	C416.625793,491.135590 419.294830,491.322754 421.778107,491.702789 
	C421.778107,491.702789 421.909058,491.936371 421.764374,492.876068 
	C421.859375,501.247070 421.954376,509.618073 422.394653,518.612000 
	C423.857147,518.370911 425.319611,518.129822 426.976807,516.984802 
	C426.941925,508.996094 426.907074,501.007416 427.040833,492.367737 
M327.733032,306.978729 
	C328.487335,307.022156 329.241669,307.065552 330.003723,307.003571 
	C330.003723,307.003571 329.898376,306.995148 329.964844,307.934509 
	C329.962891,320.479187 329.926300,333.024109 330.005371,345.568268 
	C330.014618,347.038727 330.660950,348.505188 331.633026,350.362915 
	C335.423737,351.548370 339.214447,352.733795 343.709808,354.129517 
	C344.178528,353.743042 344.647247,353.356567 345.245758,352.319397 
	C345.178009,351.885590 345.110260,351.451752 345.178040,350.085693 
	C345.190826,347.435425 345.206329,344.785156 345.215973,342.134888 
	C345.296051,320.109131 345.375092,298.083344 346.224457,276.091431 
	C347.210052,275.004242 348.986633,273.964600 349.055267,272.822266 
	C349.574615,264.179901 349.995697,255.514008 349.872406,246.863663 
	C349.843475,244.834869 348.028809,241.605789 346.333496,241.042526 
	C339.648010,238.821396 332.682861,237.441956 325.864380,235.760803 
	C321.962921,245.926498 319.195404,255.999878 314.355164,264.952637 
	C309.414703,274.090729 302.687744,282.322113 296.264252,290.578033 
	C292.099243,295.931213 287.263428,300.811554 282.363251,305.524292 
	C279.656586,308.127380 275.486572,308.955902 273.023804,305.873749 
	C271.511108,303.980591 271.887085,300.185913 272.223755,297.340790 
	C272.461426,295.332336 273.952240,293.421844 275.063354,291.575867 
	C279.521942,284.168427 284.362427,276.970398 288.443268,269.363190 
	C291.144531,264.327728 293.462860,258.887299 294.783081,253.349350 
	C298.202240,239.007339 300.523041,224.396240 304.156921,210.115112 
	C306.738007,199.971588 310.741730,190.190063 314.210815,179.950821 
	C301.386444,182.116776 291.791138,189.142090 284.176575,199.036514 
	C280.338470,204.023758 277.224854,209.563171 273.662262,214.769836 
	C271.580292,217.812546 268.993622,220.437286 264.962677,218.102753 
	C261.309662,215.987076 261.567871,212.406082 263.131104,209.290436 
	C267.586639,200.410294 271.590424,191.158569 277.185333,183.025345 
	C288.695007,166.293900 304.792755,157.139084 325.530762,156.672668 
	C342.676544,156.287033 359.320679,159.775284 375.720459,163.769547 
	C388.489319,166.879456 398.848907,164.507355 408.468689,156.129486 
	C412.599854,152.531631 417.054871,149.297729 421.444885,146.008041 
	C423.974060,144.112762 426.884796,142.896927 429.578156,145.449173 
	C432.309479,148.037445 431.923157,151.336853 429.939880,154.113831 
	C426.855011,158.433136 423.592102,162.661194 420.053558,166.613602 
	C410.841797,176.902725 399.997559,185.100159 385.901489,186.380157 
	C376.920197,187.195694 367.735565,185.678940 358.636566,185.372620 
	C356.890106,185.313812 353.942505,185.516983 353.539581,186.454651 
	C349.575623,195.679260 346.032715,205.084793 342.394714,214.376663 
	C349.778198,217.694855 356.584229,220.352081 362.998199,223.749496 
	C369.347076,227.112442 372.093384,233.675613 370.782501,240.641373 
	C368.850677,250.907135 367.084930,261.219360 364.650146,271.368225 
	C363.585999,275.803986 365.251587,276.235535 368.738861,276.159088 
	C374.735626,276.027588 380.736298,276.074402 386.866577,276.969391 
	C386.882050,301.654724 386.877258,326.340118 386.959534,351.025238 
	C386.964905,352.631470 387.638763,354.235443 388.774597,355.883148 
	C391.972229,355.014130 395.128967,353.666809 398.377136,353.389404 
	C403.123016,352.984070 403.305298,350.489105 402.557617,346.048706 
	C402.490143,311.105408 402.413025,276.162109 402.383514,241.218781 
	C402.382019,239.457581 402.791504,237.696014 403.942749,236.016052 
	C415.949097,236.126373 427.955444,236.236694 439.878235,236.693787 
	C439.878235,236.693787 440.031738,237.015762 439.927155,237.946014 
	C439.949219,269.866669 439.959076,301.787384 440.041809,333.707886 
	C440.044830,334.877930 440.761902,336.046112 441.846802,337.081848 
	C446.218628,334.417877 450.590454,331.753876 455.802185,328.740601 
	C455.971710,327.939606 456.290741,327.138336 456.289307,326.337646 
	C456.212769,283.559296 456.109161,240.780960 456.163635,197.674927 
	C456.163635,197.674927 456.051971,197.329926 456.961151,197.116333 
	C469.294861,197.178436 481.628601,197.240540 493.822968,197.973785 
	C493.888702,198.651001 493.954407,199.328201 493.881531,200.933640 
	C493.944611,225.612625 494.007690,250.291626 493.893768,275.768402 
	C493.893768,277.320404 493.893768,278.872375 493.893768,281.181610 
	C515.965576,250.166824 519.787354,194.646423 498.323669,149.093872 
	C495.013641,151.699814 491.780243,154.272385 488.518738,156.808746 
	C468.814362,172.132034 449.103943,187.447601 429.393219,202.762741 
	C428.735901,203.273468 428.051025,203.748642 427.383240,204.246078 
	C424.511139,206.385559 421.423370,207.029099 418.925293,204.073502 
	C416.452454,201.147751 418.315002,198.518509 420.436096,196.166687 
	C440.284607,174.159271 460.111053,152.131866 479.994690,130.156204 
	C481.945801,127.999809 483.222382,126.454338 480.726959,123.503441 
	C452.498871,90.123489 416.092682,74.010574 372.906952,72.349731 
	C366.472321,72.102272 359.959351,72.972351 353.528168,73.718018 
	C330.082336,76.436447 308.721344,84.870773 289.959991,99.032570 
	C241.675079,135.479904 224.055618,184.280334 234.405777,243.172272 
	C238.899124,268.739136 251.403702,290.982300 268.971466,310.079651 
	C275.733154,317.430054 283.523682,323.833984 290.845428,330.669189 
	C291.244141,330.327789 291.642853,329.986359 292.041565,329.644958 
	C292.041565,322.196991 292.041565,314.749023 292.954529,307.097992 
	C304.300385,307.010529 315.646271,306.923065 327.733032,306.978729 
M283.006439,442.033447 
	C283.005005,426.384247 283.034332,410.734894 282.957001,395.086060 
	C282.948822,393.435791 282.313293,391.788605 281.053619,390.000732 
	C277.447357,390.000732 273.841125,390.000732 270.089142,390.000732 
	C270.021332,391.361603 269.943604,392.170197 269.946167,392.978546 
	C270.010315,413.303864 270.082916,433.629181 270.575806,454.669159 
	C282.632080,454.737396 294.688324,454.821075 306.744659,454.834137 
	C307.440247,454.834900 308.136444,454.261200 309.027771,453.052521 
	C309.027771,449.804657 309.027771,446.556824 309.027771,442.965393 
	C299.919678,442.965393 291.485901,442.965393 283.006439,442.033447 
M459.101715,517.045837 
	C459.101715,506.835907 459.101715,496.626007 459.101715,485.544891 
	C457.055084,486.135681 455.543457,486.572021 453.906189,487.937592 
	C453.906189,498.154968 453.906189,508.372345 453.906189,519.251953 
	C455.992523,518.709167 457.439911,518.332642 459.101715,517.045837 
M592.481323,454.885956 
	C592.842651,454.551758 593.203979,454.217560 593.733582,453.013306 
	C593.457031,449.765747 593.180481,446.518188 592.005249,443.037018 
	C583.670288,443.009674 575.335327,442.982300 566.912659,442.026642 
	C566.913940,426.218475 566.940796,410.410248 566.874939,394.602356 
	C566.868713,393.104004 566.281738,391.608093 565.050476,389.957916 
	C561.446838,389.957916 557.843140,389.957916 554.236206,389.957916 
	C554.236206,411.823700 554.236206,433.152588 554.236206,454.694183 
	C567.052551,454.694183 579.496338,454.694183 592.481323,454.885956 
M493.091980,389.934265 
	C489.676971,389.934265 486.261932,389.934265 482.729492,389.934265 
	C482.729492,411.813721 482.729492,433.040253 482.729492,455.110168 
	C486.990875,454.716644 490.955597,454.350494 495.150360,453.072845 
	C495.144562,433.683167 495.165344,414.293365 495.084259,394.904022 
	C495.077515,393.293091 494.382355,391.685059 493.091980,389.934265 
M136.095596,389.944489 
	C125.505257,389.944489 114.914917,389.944489 104.115128,389.944489 
	C104.115128,411.720673 104.115128,433.044647 104.115128,454.731537 
	C116.354759,454.731537 128.280701,454.757050 140.205597,454.657013 
	C140.809540,454.651947 141.404388,453.563995 142.030594,452.139709 
	C141.968979,450.742065 141.907364,449.344421 141.971634,447.080627 
	C141.895645,445.827209 141.819656,444.573761 141.737320,443.215485 
	C133.242081,443.215485 125.127678,443.215485 116.621262,443.024017 
	C116.621262,443.024017 116.188133,442.971710 116.108963,442.044586 
	C116.217682,437.047363 116.326393,432.050140 116.701660,427.187225 
	C116.701660,427.187225 116.971748,427.060181 117.720108,427.377106 
	C124.747177,427.377106 131.774246,427.377106 138.630890,427.377106 
	C138.630890,423.371155 138.630890,419.991028 138.630890,415.887848 
	C130.845764,415.887848 123.435402,415.887848 116.092812,414.973969 
	C116.071098,410.392059 116.049385,405.810150 116.950188,401.071655 
	C124.934029,401.071655 132.917862,401.071655 140.751617,401.071655 
	C140.751617,396.918915 140.751617,393.525635 140.751617,390.119629 
	C139.310150,390.119629 138.165787,390.119629 136.095596,389.944489 
M545.948547,505.604553 
	C545.851440,505.914429 545.773010,506.232239 545.647034,506.529877 
	C545.604187,506.631073 545.352600,506.753113 545.346313,506.745239 
	C544.417053,505.589172 543.475281,504.441620 542.590210,503.251923 
	C538.364807,497.572083 534.154907,491.880676 529.166138,486.021301 
	C527.787476,486.350677 526.408813,486.680023 524.889587,487.757019 
	C524.946960,488.511566 525.004333,489.266113 524.929993,490.947418 
	C524.996399,499.949890 525.062805,508.952362 525.486145,518.650208 
	C526.887573,518.650208 528.289062,518.650208 530.106201,518.650208 
	C530.106201,511.016510 530.106201,503.824005 530.106201,496.631500 
	C535.531616,502.929993 540.089172,509.531128 544.566895,516.185974 
	C546.211304,518.629883 547.965576,520.136108 551.013550,517.015442 
	C551.013550,506.751221 551.013550,496.487030 551.013550,486.273773 
	C549.019165,486.273773 547.611023,486.273773 546.122253,486.273773 
	C546.122253,492.680267 546.122253,498.811188 545.948547,505.604553 
M279.566132,518.606140 
	C281.168457,518.682068 282.770782,518.757996 284.875580,518.857727 
	C284.875580,514.612549 284.875580,510.844757 284.875580,505.366364 
	C287.682007,506.962433 289.729828,507.624329 291.029022,508.995514 
	C292.588409,510.641296 293.519928,512.885498 294.705566,514.881226 
	C297.366516,519.360229 297.362030,519.362915 303.188599,518.072876 
	C300.761810,513.888123 298.386292,509.791748 295.900177,505.504639 
	C301.065125,503.069550 302.679199,498.908417 301.952881,493.864563 
	C301.308228,489.387817 298.251007,487.035767 293.021393,486.007416 
	C288.436066,486.007416 283.850708,486.007416 279.221405,486.007416 
	C279.221405,497.037598 279.221405,507.476105 279.566132,518.606140 
M326.030975,486.024750 
	C324.112823,486.024750 322.194672,486.024750 320.128387,486.024750 
	C320.128387,497.052277 320.128387,507.506714 320.454285,518.682129 
	C322.069611,518.682129 323.684906,518.682129 325.930176,518.682129 
	C325.930176,511.823517 325.930176,505.231995 325.930176,498.640472 
	C329.202026,504.141266 331.418335,509.792419 333.938263,515.304810 
	C334.576294,516.700500 336.212616,518.591980 337.335419,518.555786 
	C338.542511,518.516846 340.162384,516.684814 340.773285,515.275818 
	C343.425812,509.158447 345.775909,502.909882 348.235901,496.709015 
	C348.489258,496.775330 348.742584,496.841675 348.995911,496.908020 
	C348.995911,500.499176 348.995911,504.090302 348.995911,507.681458 
	C348.995911,511.305084 348.995911,514.928711 348.995911,519.186035 
	C351.047974,518.698120 352.520569,518.348022 354.201599,517.079773 
	C354.201599,506.763458 354.201599,496.447174 354.201599,485.285400 
	C351.141602,486.019104 349.063477,486.517365 346.565826,487.584045 
	C343.592102,494.688934 340.618378,501.793854 337.333801,509.641479 
	C336.330200,507.318695 335.645935,505.686401 334.923340,504.071289 
	C332.258087,498.114136 329.580170,492.162628 326.030975,486.024750 
M518.089355,389.904327 
	C514.512756,389.904327 510.936096,389.904327 507.108582,389.904327 
	C507.108582,411.452637 507.104492,432.234039 507.137054,453.015411 
	C507.137726,453.438660 507.564606,453.861267 508.651093,454.610107 
	C519.747314,454.684937 530.843872,454.817719 541.939331,454.753662 
	C543.183899,454.746460 544.421936,453.623962 545.857727,452.144348 
	C545.545471,449.172272 545.233215,446.200226 544.012756,443.028442 
	C536.352966,443.053741 528.693176,443.079041 520.654297,442.949646 
	C520.654297,442.949646 520.245605,442.974609 520.100037,442.049957 
	C520.077332,426.186554 520.081299,410.323029 519.987488,394.460052 
	C519.978760,392.991089 519.348206,391.525848 518.089355,389.904327 
M314.117035,438.665100 
	C316.702179,448.948792 323.756531,454.445343 333.818329,455.722504 
	C347.501404,457.459320 361.872589,451.567017 362.758331,434.526215 
	C363.474182,420.753723 362.960663,406.914856 362.841187,393.106750 
	C362.832520,392.108002 361.588470,391.119995 360.011780,389.995911 
	C356.739685,389.995911 353.467590,389.995911 349.822174,389.995911 
	C349.822174,405.382751 349.822174,420.186127 349.344818,435.487701 
	C347.622131,441.395081 344.490509,443.854675 338.753296,444.007812 
	C331.798859,444.193420 328.773132,439.859833 327.087372,433.073669 
	C327.082031,420.188416 327.110748,407.302917 327.024200,394.418182 
	C327.014404,392.961792 326.355011,391.509766 325.466064,389.953339 
	C325.292786,390.002563 325.119476,390.051819 324.031677,389.990143 
	C320.761047,389.990143 317.490417,389.990143 314.181976,389.990143 
	C314.181976,406.335876 314.181976,422.130341 314.117035,438.665100 
M484.540009,153.034607 
	C492.539398,146.052078 500.538818,139.069550 508.620605,132.015121 
	C513.108154,135.710724 517.513672,139.338760 522.836609,143.722305 
	C525.831909,126.397041 528.567017,110.576775 531.387329,94.263855 
	C514.938110,97.904480 499.611603,101.296638 482.861267,105.003922 
	C488.373657,110.096207 492.925446,114.301102 497.781036,118.786652 
	C472.965485,145.620682 448.309021,172.282684 423.652527,198.944702 
	C423.941254,199.288635 424.230011,199.632568 424.518738,199.976501 
	C425.219849,199.705017 426.042297,199.586319 426.604523,199.139908 
	C445.748199,183.939545 464.867218,168.708084 484.540009,153.034607 
M223.429184,390.711945 
	C217.076859,392.751343 212.413361,396.920715 209.356354,402.687988 
	C203.068527,414.550415 202.531189,427.019135 207.788971,439.185242 
	C216.335892,458.962158 241.704803,462.067993 255.186020,445.269440 
	C260.880341,438.173798 262.257141,429.724030 262.031647,420.883026 
	C261.496674,399.911560 246.187469,384.060059 223.429184,390.711945 
M414.286530,402.522491 
	C410.759705,392.188843 402.222778,387.452850 390.179504,389.148712 
	C379.598938,390.638611 372.829254,396.670441 372.024475,405.325134 
	C370.981445,416.541931 375.156128,422.573151 386.679474,426.337311 
	C390.772644,427.674316 394.965027,428.716003 399.029022,430.131195 
	C402.526703,431.349182 404.406769,433.808167 403.997589,437.764771 
	C403.580872,441.794037 400.995514,443.442871 397.435059,444.109283 
	C389.671997,445.562195 385.653503,443.183624 382.116180,434.912842 
	C378.315674,435.136688 374.432831,435.365387 370.131348,435.618744 
	C370.842834,438.844025 371.166046,441.309296 371.935577,443.626343 
	C375.446533,454.197876 388.146362,457.266388 398.704559,455.629395 
	C406.715576,454.387329 413.394867,450.962006 415.907257,442.568512 
	C419.532227,430.458160 414.536133,422.050934 401.674255,417.975830 
	C397.259888,416.577240 392.591705,415.610046 388.593140,413.430115 
	C386.688019,412.391479 384.910461,408.809113 385.212067,406.682007 
	C385.513794,404.553925 388.142731,401.849518 390.343964,401.069458 
	C396.569092,398.863617 400.120392,401.383545 403.343353,409.061523 
	C406.894989,409.061523 410.364990,409.071289 413.834656,409.043854 
	C414.127136,409.041534 414.417664,408.789734 415.124481,408.460114 
	C414.918884,406.840179 414.696472,405.087921 414.286530,402.522491 
M625.660522,416.879211 
	C622.571228,415.710724 619.152222,415.021179 616.510620,413.202393 
	C614.799744,412.024414 613.039185,408.928040 613.435547,407.173645 
	C613.954590,404.876404 616.190857,402.079651 618.370850,401.211517 
	C624.934387,398.597778 629.543701,401.669891 631.832642,409.537720 
	C635.682068,409.322388 639.586609,409.104004 643.848694,408.865601 
	C643.298645,406.164215 643.082947,403.826263 642.339783,401.670135 
	C638.552368,390.681702 625.307129,385.834991 612.716431,390.627106 
	C607.656433,392.552979 603.741150,395.619232 601.701904,400.745453 
	C597.482239,411.352997 601.363098,420.875824 612.013367,425.215057 
	C616.909058,427.209747 622.158203,428.318878 627.144409,430.114471 
	C632.687134,432.110413 634.334290,437.600281 630.812744,441.579742 
	C626.106323,446.898315 614.574585,444.535797 611.973511,437.894684 
	C611.490845,436.662415 609.702087,435.262390 608.417908,435.159027 
	C605.358582,434.912781 602.240662,435.395447 599.183350,435.581451 
	C599.584717,445.839355 604.785217,453.272583 613.366882,454.728790 
	C618.794617,455.649841 624.587524,455.610779 630.052002,454.837921 
	C637.786438,453.743958 644.117615,446.543793 644.960571,439.304932 
	C646.063049,429.836029 642.568420,423.510529 633.929932,419.668518 
	C631.519653,418.596527 628.941345,417.902283 625.660522,416.879211 
M175.437943,437.902679 
	C174.944366,437.173553 174.227264,436.510193 173.990540,435.705505 
	C169.972397,422.047241 166.068390,408.355042 161.961838,394.723755 
	C161.529068,393.287231 160.094711,391.242920 158.930298,391.103149 
	C155.098648,390.643341 151.177399,390.930115 146.748779,390.930115 
	C152.383057,408.861847 157.766663,425.897491 163.084564,442.953552 
	C166.938171,455.313049 166.898041,455.275604 179.733414,454.941406 
	C182.203644,454.877106 183.422775,454.352936 184.225922,451.610657 
	C188.273575,437.790039 192.717957,424.086182 196.945572,410.317535 
	C198.855316,404.097839 200.585037,397.822845 202.584579,390.923737 
	C199.023300,390.923737 196.526459,391.150177 194.087311,390.871613 
	C190.261032,390.434662 188.744522,391.871552 187.734955,395.701843 
	C184.064148,409.628845 179.882141,423.421143 175.437943,437.902679 
M480.792664,490.352020 
	C480.009399,491.613098 479.093597,492.811584 478.463684,494.145081 
	C473.244720,505.194153 479.122375,517.805176 490.130951,519.266479 
	C501.147766,520.728882 508.771240,511.984497 507.340271,499.490479 
	C506.628357,493.274475 503.866394,488.259308 497.763824,486.145538 
	C491.727142,484.054596 485.966492,484.869232 480.792664,490.352020 
M231.350647,504.152863 
	C233.352448,514.352478 238.215454,519.482117 245.982620,519.587158 
	C254.359360,519.700500 260.464142,514.578430 261.792938,505.533112 
	C263.527069,493.728668 255.544312,482.370422 242.360260,485.843353 
	C235.349915,487.690033 231.908691,493.207123 231.350647,504.152863 
M385.524963,510.796417 
	C389.133789,510.936798 393.583069,509.551056 394.511810,515.047363 
	C395.228943,519.291626 397.737701,519.405212 401.696747,518.281555 
	C397.702332,507.707062 393.760101,497.270660 389.912201,487.084045 
	C387.024017,487.084045 384.727325,487.084045 382.415192,487.084045 
	C378.495636,497.562531 374.634338,507.885223 370.756012,518.253479 
	C374.908020,519.693176 377.466156,518.917419 378.027679,514.706543 
	C378.581909,510.550201 381.454437,510.479004 385.524963,510.796417 
M216.375565,486.200928 
	C210.014236,486.603149 203.652893,487.005371 197.216858,487.412354 
	C197.216858,497.903168 197.216858,508.149719 197.216858,518.586548 
	C198.883255,518.586548 200.280380,518.586548 202.244690,518.586548 
	C202.244690,514.115356 202.244690,509.883698 202.244690,505.157715 
	C206.715897,505.157715 210.629211,505.157715 214.480942,505.157715 
	C214.929871,500.383392 214.930939,500.339325 211.203354,500.249084 
	C208.289551,500.178558 205.372696,500.234955 202.539673,500.234955 
	C202.539673,496.726074 202.539673,494.003021 202.539673,490.848389 
	C207.517532,490.848389 212.118118,490.848389 216.847565,490.848389 
	C216.847565,489.246185 216.847565,488.087555 216.375565,486.200928 
z"/>
<path fill="#90a179" opacity="1.000000" stroke="none" 
	d="
M292.041565,307.301086 
	C292.041565,314.749023 292.041565,322.196991 292.041565,329.644958 
	C291.642853,329.986359 291.244141,330.327789 290.845428,330.669189 
	C283.523682,323.833984 275.733154,317.430054 268.971466,310.079651 
	C251.403702,290.982300 238.899124,268.739136 234.405777,243.172272 
	C224.055618,184.280334 241.675079,135.479904 289.959991,99.032570 
	C308.721344,84.870773 330.082336,76.436447 353.528168,73.718018 
	C359.959351,72.972351 366.472321,72.102272 372.906952,72.349731 
	C416.092682,74.010574 452.498871,90.123489 480.726959,123.503441 
	C483.222382,126.454338 481.945801,127.999809 479.994690,130.156204 
	C460.111053,152.131866 440.284607,174.159271 420.436096,196.166687 
	C418.315002,198.518509 416.452454,201.147751 418.925293,204.073502 
	C421.423370,207.029099 424.511139,206.385559 427.383240,204.246078 
	C428.051025,203.748642 428.735901,203.273468 429.393219,202.762741 
	C449.103943,187.447601 468.814362,172.132034 488.518738,156.808746 
	C491.780243,154.272385 495.013641,151.699814 498.323669,149.093872 
	C519.787354,194.646423 515.965576,250.166824 493.893768,281.181610 
	C493.893768,278.872375 493.893768,277.320404 494.262756,275.066467 
	C494.749268,273.718201 494.968994,273.071991 494.969543,272.425568 
	C494.989319,249.513779 495.003571,226.601974 494.949371,203.690308 
	C494.946472,202.461288 494.343689,201.233673 494.020142,200.005417 
	C493.954407,199.328201 493.888702,198.651001 493.662201,197.277649 
	C481.504456,196.430603 469.507538,196.265503 457.510101,196.180344 
	C457.026825,196.176926 456.538147,196.929565 456.051971,197.329926 
	C456.051971,197.329926 456.163635,197.674927 455.786377,198.130035 
	C455.272552,200.556381 455.018433,202.527496 455.016754,204.498856 
	C454.981476,246.029190 454.974670,287.559540 454.962280,329.089905 
	C450.590454,331.753876 446.218628,334.417877 441.461365,336.666412 
	C441.049316,305.060883 441.039337,273.870758 440.954956,242.680786 
	C440.949860,240.791626 440.353180,238.904068 440.031738,237.015762 
	C440.031738,237.015762 439.878235,236.693787 439.715820,236.138306 
	C438.112457,235.374466 436.672028,234.990417 435.230408,234.985779 
	C424.490295,234.951279 413.750000,234.991989 402.610138,235.092468 
	C401.805542,236.671707 401.049866,238.166901 401.047058,239.663498 
	C400.982971,273.944641 400.985107,308.225952 401.057709,342.507050 
	C401.060822,343.985046 401.854401,345.461365 402.279755,346.938446 
	C403.305298,350.489105 403.123016,352.984070 398.377136,353.389404 
	C395.128967,353.666809 391.972229,355.014130 388.391083,355.404419 
	C388.003632,330.463806 388.026672,306.001801 387.941467,281.540192 
	C387.935089,279.707550 387.155487,277.877563 386.735352,276.046326 
	C380.736298,276.074402 374.735626,276.027588 368.738861,276.159088 
	C365.251587,276.235535 363.585999,275.803986 364.650146,271.368225 
	C367.084930,261.219360 368.850677,250.907135 370.782501,240.641373 
	C372.093384,233.675613 369.347076,227.112442 362.998199,223.749496 
	C356.584229,220.352081 349.778198,217.694855 342.394714,214.376663 
	C346.032715,205.084793 349.575623,195.679260 353.539581,186.454651 
	C353.942505,185.516983 356.890106,185.313812 358.636566,185.372620 
	C367.735565,185.678940 376.920197,187.195694 385.901489,186.380157 
	C399.997559,185.100159 410.841797,176.902725 420.053558,166.613602 
	C423.592102,162.661194 426.855011,158.433136 429.939880,154.113831 
	C431.923157,151.336853 432.309479,148.037445 429.578156,145.449173 
	C426.884796,142.896927 423.974060,144.112762 421.444885,146.008041 
	C417.054871,149.297729 412.599854,152.531631 408.468689,156.129486 
	C398.848907,164.507355 388.489319,166.879456 375.720459,163.769547 
	C359.320679,159.775284 342.676544,156.287033 325.530762,156.672668 
	C304.792755,157.139084 288.695007,166.293900 277.185333,183.025345 
	C271.590424,191.158569 267.586639,200.410294 263.131104,209.290436 
	C261.567871,212.406082 261.309662,215.987076 264.962677,218.102753 
	C268.993622,220.437286 271.580292,217.812546 273.662262,214.769836 
	C277.224854,209.563171 280.338470,204.023758 284.176575,199.036514 
	C291.791138,189.142090 301.386444,182.116776 314.210815,179.950821 
	C310.741730,190.190063 306.738007,199.971588 304.156921,210.115112 
	C300.523041,224.396240 298.202240,239.007339 294.783081,253.349350 
	C293.462860,258.887299 291.144531,264.327728 288.443268,269.363190 
	C284.362427,276.970398 279.521942,284.168427 275.063354,291.575867 
	C273.952240,293.421844 272.461426,295.332336 272.223755,297.340790 
	C271.887085,300.185913 271.511108,303.980591 273.023804,305.873749 
	C275.486572,308.955902 279.656586,308.127380 282.363251,305.524292 
	C287.263428,300.811554 292.099243,295.931213 296.264252,290.578033 
	C302.687744,282.322113 309.414703,274.090729 314.355164,264.952637 
	C319.195404,255.999878 321.962921,245.926498 325.864380,235.760803 
	C332.682861,237.441956 339.648010,238.821396 346.333496,241.042526 
	C348.028809,241.605789 349.843475,244.834869 349.872406,246.863663 
	C349.995697,255.514008 349.574615,264.179901 349.055267,272.822266 
	C348.986633,273.964600 347.210052,275.004242 345.451019,276.277039 
	C344.453918,277.401581 344.036499,278.340210 344.034973,279.279480 
	C343.997620,301.978851 343.988708,324.678284 344.047974,347.377563 
	C344.051147,348.591888 344.696259,349.804535 345.042542,351.017944 
	C345.110260,351.451752 345.178009,351.885590 344.871552,352.653564 
	C343.999939,353.298279 343.502563,353.608765 343.005157,353.919250 
	C339.214447,352.733795 335.423737,351.548370 331.325806,349.701416 
	C331.012665,336.729126 331.049011,324.417999 330.951874,312.107910 
	C330.938416,310.401001 330.265808,308.699280 329.898376,306.995148 
	C329.898376,306.995148 330.003723,307.003571 329.809998,306.770447 
	C328.737549,306.367584 327.858826,306.197876 326.512756,306.020203 
	C316.343292,306.006104 306.640503,305.939606 296.939758,306.052765 
	C295.302399,306.071869 293.674072,306.865356 292.041565,307.301086 
M324.027924,132.135757 
	C325.428650,141.644241 330.848022,147.871979 339.903198,150.653503 
	C349.414734,153.575195 357.731598,151.112488 364.057556,143.446075 
	C370.067322,136.162781 370.212463,127.912476 366.350830,119.608139 
	C361.855499,109.940994 351.396240,105.317291 340.414490,108.043083 
	C332.278687,110.062485 322.837891,118.752594 324.027924,132.135757 
z"/>
<path fill="#90a179" opacity="1.000000" stroke="none" 
	d="
M484.264893,153.257843 
	C464.867218,168.708084 445.748199,183.939545 426.604523,199.139908 
	C426.042297,199.586319 425.219849,199.705017 424.518738,199.976501 
	C424.230011,199.632568 423.941254,199.288635 423.652527,198.944702 
	C448.309021,172.282684 472.965485,145.620682 497.781036,118.786652 
	C492.925446,114.301102 488.373657,110.096207 482.861267,105.003922 
	C499.611603,101.296638 514.938110,97.904480 531.387329,94.263855 
	C528.567017,110.576775 525.831909,126.397041 522.836609,143.722305 
	C517.513672,139.338760 513.108154,135.710724 508.620605,132.015121 
	C500.538818,139.069550 492.539398,146.052078 484.264893,153.257843 
z"/>
<path fill="#90a179" opacity="1.000000" stroke="none" 
	d="
M223.770630,390.499054 
	C246.187469,384.060059 261.496674,399.911560 262.031647,420.883026 
	C262.257141,429.724030 260.880341,438.173798 255.186020,445.269440 
	C241.704803,462.067993 216.335892,458.962158 207.788971,439.185242 
	C202.531189,427.019135 203.068527,414.550415 209.356354,402.687988 
	C212.413361,396.920715 217.076859,392.751343 223.770630,390.499054 
M235.171692,443.991669 
	C240.615799,443.290863 244.319916,440.327087 246.324524,435.267670 
	C249.801834,426.491394 249.622559,417.673889 245.788254,409.131653 
	C243.274033,403.530426 238.763275,400.420807 232.304520,400.771393 
	C226.517075,401.085632 221.632019,404.420044 220.082855,410.742523 
	C218.723206,416.291504 217.867584,422.239105 218.304092,427.893738 
	C219.118912,438.449158 225.029587,443.835724 235.171692,443.991669 
z"/>
<path fill="#90a179" opacity="1.000000" stroke="none" 
	d="
M414.380310,402.929077 
	C414.696472,405.087921 414.918884,406.840179 415.124481,408.460114 
	C414.417664,408.789734 414.127136,409.041534 413.834656,409.043854 
	C410.364990,409.071289 406.894989,409.061523 403.343353,409.061523 
	C400.120392,401.383545 396.569092,398.863617 390.343964,401.069458 
	C388.142731,401.849518 385.513794,404.553925 385.212067,406.682007 
	C384.910461,408.809113 386.688019,412.391479 388.593140,413.430115 
	C392.591705,415.610046 397.259888,416.577240 401.674255,417.975830 
	C414.536133,422.050934 419.532227,430.458160 415.907257,442.568512 
	C413.394867,450.962006 406.715576,454.387329 398.704559,455.629395 
	C388.146362,457.266388 375.446533,454.197876 371.935577,443.626343 
	C371.166046,441.309296 370.842834,438.844025 370.131348,435.618744 
	C374.432831,435.365387 378.315674,435.136688 382.116180,434.912842 
	C385.653503,443.183624 389.671997,445.562195 397.435059,444.109283 
	C400.995514,443.442871 403.580872,441.794037 403.997589,437.764771 
	C404.406769,433.808167 402.526703,431.349182 399.029022,430.131195 
	C394.965027,428.716003 390.772644,427.674316 386.679474,426.337311 
	C375.156128,422.573151 370.981445,416.541931 372.024475,405.325134 
	C372.829254,396.670441 379.598938,390.638611 390.179504,389.148712 
	C402.222778,387.452850 410.759705,392.188843 414.380310,402.929077 
z"/>
<path fill="#90a179" opacity="1.000000" stroke="none" 
	d="
M626.050293,416.956970 
	C628.941345,417.902283 631.519653,418.596527 633.929932,419.668518 
	C642.568420,423.510529 646.063049,429.836029 644.960571,439.304932 
	C644.117615,446.543793 637.786438,453.743958 630.052002,454.837921 
	C624.587524,455.610779 618.794617,455.649841 613.366882,454.728790 
	C604.785217,453.272583 599.584717,445.839355 599.183350,435.581451 
	C602.240662,435.395447 605.358582,434.912781 608.417908,435.159027 
	C609.702087,435.262390 611.490845,436.662415 611.973511,437.894684 
	C614.574585,444.535797 626.106323,446.898315 630.812744,441.579742 
	C634.334290,437.600281 632.687134,432.110413 627.144409,430.114471 
	C622.158203,428.318878 616.909058,427.209747 612.013367,425.215057 
	C601.363098,420.875824 597.482239,411.352997 601.701904,400.745453 
	C603.741150,395.619232 607.656433,392.552979 612.716431,390.627106 
	C625.307129,385.834991 638.552368,390.681702 642.339783,401.670135 
	C643.082947,403.826263 643.298645,406.164215 643.848694,408.865601 
	C639.586609,409.104004 635.682068,409.322388 631.832642,409.537720 
	C629.543701,401.669891 624.934387,398.597778 618.370850,401.211517 
	C616.190857,402.079651 613.954590,404.876404 613.435547,407.173645 
	C613.039185,408.928040 614.799744,412.024414 616.510620,413.202393 
	C619.152222,415.021179 622.571228,415.710724 626.050293,416.956970 
z"/>
<path fill="#90a179" opacity="1.000000" stroke="none" 
	d="
M456.803436,449.057068 
	C452.646637,441.919525 448.489807,434.781952 444.350861,427.675079 
	C439.318909,431.848969 436.980560,437.211578 437.837769,444.067627 
	C438.224701,447.162048 437.789978,450.359222 437.032074,453.411102 
	C434.852875,453.207062 433.330444,452.834290 431.893524,453.044891 
	C426.965210,453.767120 425.800659,451.655945 425.888275,446.940765 
	C426.178802,431.301666 426.035706,415.653595 425.943207,400.009644 
	C425.933472,398.361481 425.158020,396.717896 424.737793,395.072174 
	C424.543823,393.787659 424.349854,392.503143 424.123749,391.005737 
	C428.703430,390.564575 432.982330,390.152405 437.934357,389.675385 
	C437.934357,394.588257 437.934357,398.860291 437.934357,403.132324 
	C437.934357,407.446564 437.934357,411.760834 437.934357,417.462524 
	C441.799316,412.227814 444.944733,407.922241 448.139343,403.653442 
	C451.418030,399.272247 454.744812,394.926971 457.734253,390.983337 
	C462.306366,390.983337 466.504333,390.983337 472.063019,390.983337 
	C468.266510,396.162415 465.177521,400.356934 462.109650,404.566833 
	C459.092224,408.707489 453.958130,412.732147 453.692413,417.050140 
	C453.426880,421.364746 458.007660,425.999420 460.527679,430.457764 
	C463.299866,435.362274 466.144775,440.225647 469.016846,445.781738 
	C469.452972,446.944214 469.830231,447.431885 470.207489,447.919556 
	C470.207489,447.919556 470.112457,447.931793 470.107300,448.217346 
	C470.498230,448.943939 470.894348,449.384979 471.290466,449.826050 
	C471.290466,449.826050 471.204712,449.896454 471.235657,450.112213 
	C471.534332,450.560150 471.802094,450.792297 472.069885,451.024445 
	C472.069885,451.024445 472.405853,451.298309 472.077362,451.677765 
	C467.402069,452.099609 463.055267,452.141968 458.708466,452.184357 
	C458.708466,452.184357 458.789307,452.109009 458.761078,451.896057 
	C458.459808,451.468719 458.186768,451.254303 457.913727,451.039917 
	C457.913727,451.039886 457.992828,451.012878 457.959259,450.725586 
	C457.551605,449.977905 457.177521,449.517487 456.803436,449.057068 
z"/>
<path fill="#90a179" opacity="1.000000" stroke="none" 
	d="
M326.996521,434.009308 
	C328.773132,439.859833 331.798859,444.193420 338.753296,444.007812 
	C344.490509,443.854675 347.622131,441.395081 349.924072,434.985107 
	C350.665100,422.385162 350.831482,410.287872 350.984650,398.190399 
	C351.013214,395.934784 350.988739,393.678497 350.988739,391.585632 
	C354.833496,391.020844 357.876160,390.573914 360.918793,390.126984 
	C361.588470,391.119995 362.832520,392.108002 362.841187,393.106750 
	C362.960663,406.914856 363.474182,420.753723 362.758331,434.526215 
	C361.872589,451.567017 347.501404,457.459320 333.818329,455.722504 
	C323.756531,454.445343 316.702179,448.948792 314.408630,437.979675 
	C314.700256,421.987457 314.700256,406.680695 314.700256,391.668701 
	C318.880371,391.029114 321.913269,390.565094 324.946136,390.101044 
	C325.119476,390.051819 325.292786,390.002563 325.721497,390.469116 
	C325.980530,403.606781 325.945923,416.228943 326.032379,428.850250 
	C326.044159,430.572052 326.660217,432.289734 326.996521,434.009308 
z"/>
<path fill="#90a179" opacity="1.000000" stroke="none" 
	d="
M175.665421,437.583435 
	C179.882141,423.421143 184.064148,409.628845 187.734955,395.701843 
	C188.744522,391.871552 190.261032,390.434662 194.087311,390.871613 
	C196.526459,391.150177 199.023300,390.923737 202.584579,390.923737 
	C200.585037,397.822845 198.855316,404.097839 196.945572,410.317535 
	C192.717957,424.086182 188.273575,437.790039 184.225922,451.610657 
	C183.422775,454.352936 182.203644,454.877106 179.733414,454.941406 
	C166.898041,455.275604 166.938171,455.313049 163.084564,442.953552 
	C157.766663,425.897491 152.383057,408.861847 146.748779,390.930115 
	C151.177399,390.930115 155.098648,390.643341 158.930298,391.103149 
	C160.094711,391.242920 161.529068,393.287231 161.961838,394.723755 
	C166.068390,408.355042 169.972397,422.047241 173.990540,435.705505 
	C174.227264,436.510193 174.944366,437.173553 175.665421,437.583435 
z"/>
<path fill="#90a179" opacity="1.000000" stroke="none" 
	d="
M116.971748,427.060181 
	C116.971748,427.060181 116.701660,427.187225 116.183228,427.324219 
	C115.839241,432.631409 116.013687,437.801544 116.188133,442.971710 
	C116.188133,442.971710 116.621262,443.024017 116.928253,443.497040 
	C118.744812,444.312622 120.248108,444.913666 121.765091,444.950439 
	C126.843353,445.073578 131.944321,444.754761 136.997711,445.129425 
	C138.674149,445.253723 140.233109,446.962433 141.845764,447.946777 
	C141.907364,449.344421 141.968979,450.742065 141.548340,452.559692 
	C130.594345,452.985382 120.121300,452.900330 109.651642,453.050812 
	C106.410774,453.097382 104.890038,452.424408 104.925697,448.701355 
	C105.096024,430.917633 105.093971,413.130432 104.924080,395.346680 
	C104.888969,391.671356 106.308098,390.897369 109.604492,390.953522 
	C118.743507,391.109222 127.887283,390.986023 137.439087,390.990662 
	C138.776810,393.687378 139.704620,396.366455 140.967529,400.013123 
	C133.527283,400.013123 127.769577,399.910522 122.019043,400.068848 
	C120.012802,400.124084 118.024277,400.823181 116.027664,401.228210 
	C116.049385,405.810150 116.071098,410.392059 116.138611,415.837585 
	C117.654213,417.136017 119.112518,417.893036 120.595924,417.945953 
	C125.241623,418.111603 129.899399,418.106049 134.547256,417.977661 
	C137.152435,417.905762 137.933640,418.965515 138.067856,421.489594 
	C138.250809,424.930206 137.104462,426.098816 133.571259,426.093170 
	C128.038620,426.084290 122.504967,426.705719 116.971748,427.060181 
z"/>
<path fill="#90a179" opacity="1.000000" stroke="none" 
	d="
M520.245605,442.974609 
	C520.245605,442.974609 520.654297,442.949646 521.146118,443.309143 
	C529.398987,443.521790 537.160034,443.374969 544.921021,443.228149 
	C545.233215,446.200226 545.545471,449.172272 545.315552,452.577942 
	C534.125732,453.007263 523.477478,452.947113 512.830933,453.056366 
	C511.147461,453.073669 509.471863,453.855713 507.792633,454.284180 
	C507.564606,453.861267 507.137726,453.438660 507.137054,453.015411 
	C507.104492,432.234039 507.108582,411.452637 507.108582,389.904327 
	C510.936096,389.904327 514.512756,389.904327 518.537170,390.445923 
	C518.986328,406.653595 518.950073,422.319885 519.044067,437.985382 
	C519.054077,439.650818 519.826782,441.311646 520.245605,442.974609 
z"/>
<path fill="#90a179" opacity="1.000000" stroke="none" 
	d="
M565.964355,390.111023 
	C566.281738,391.608093 566.868713,393.104004 566.874939,394.602356 
	C566.940796,410.410248 566.913940,426.218475 567.240967,442.799805 
	C576.014221,443.472198 584.459045,443.371399 592.903931,443.270630 
	C593.180481,446.518188 593.457031,449.765747 593.483765,453.430725 
	C593.233948,453.848145 592.906921,453.779327 592.591553,453.522919 
	C581.490845,453.179108 570.702271,452.906647 559.921997,453.099976 
	C555.898315,453.172180 554.877869,451.868500 554.919739,447.997589 
	C555.108337,430.560455 554.997559,413.120178 555.025085,395.681061 
	C555.027283,394.252869 555.258118,392.824982 555.367737,391.568268 
	C559.223083,391.038086 562.593750,390.574554 565.964355,390.111023 
z"/>
<path fill="#90a179" opacity="1.000000" stroke="none" 
	d="
M353.993134,517.997864 
	C352.520569,518.348022 351.047974,518.698120 348.995911,519.186035 
	C348.995911,514.928711 348.995911,511.305084 348.995911,507.681458 
	C348.995911,504.090302 348.995911,500.499176 348.995911,496.908020 
	C348.742584,496.841675 348.489258,496.775330 348.235901,496.709015 
	C345.775909,502.909882 343.425812,509.158447 340.773285,515.275818 
	C340.162384,516.684814 338.542511,518.516846 337.335419,518.555786 
	C336.212616,518.591980 334.576294,516.700500 333.938263,515.304810 
	C331.418335,509.792419 329.202026,504.141266 325.930176,498.640472 
	C325.930176,505.231995 325.930176,511.823517 325.930176,518.682129 
	C323.684906,518.682129 322.069611,518.682129 320.583923,518.027100 
	C320.713531,507.391937 320.713531,497.411896 320.713531,487.738983 
	C323.480530,487.055450 325.193756,486.632202 326.907013,486.208984 
	C329.580170,492.162628 332.258087,498.114136 334.923340,504.071289 
	C335.645935,505.686401 336.330200,507.318695 337.333801,509.641479 
	C340.618378,501.793854 343.592102,494.688934 347.214630,487.306213 
	C349.452606,487.137482 351.041779,487.246552 353.004669,487.381256 
	C353.004669,495.357971 352.922089,502.833221 353.050018,510.304901 
	C353.094025,512.873840 353.663666,515.433777 353.993134,517.997864 
z"/>
<path fill="#90a179" opacity="1.000000" stroke="none" 
	d="
M481.065765,490.102356 
	C485.966492,484.869232 491.727142,484.054596 497.763824,486.145538 
	C503.866394,488.259308 506.628357,493.274475 507.340271,499.490479 
	C508.771240,511.984497 501.147766,520.728882 490.130951,519.266479 
	C479.122375,517.805176 473.244720,505.194153 478.463684,494.145081 
	C479.093597,492.811584 480.009399,491.613098 481.065765,490.102356 
M483.100220,505.885376 
	C484.077698,510.001648 485.895874,513.346802 490.628448,513.934692 
	C495.677795,514.561829 499.620483,511.825592 500.950012,506.812714 
	C502.801758,499.830719 500.642456,493.377899 495.744019,491.255188 
	C491.043762,489.218353 485.661469,491.295135 484.059875,496.266510 
	C483.174164,499.015686 483.344818,502.105164 483.100220,505.885376 
z"/>
<path fill="#90a179" opacity="1.000000" stroke="none" 
	d="
M231.312103,503.738098 
	C231.908691,493.207123 235.349915,487.690033 242.360260,485.843353 
	C255.544312,482.370422 263.527069,493.728668 261.792938,505.533112 
	C260.464142,514.578430 254.359360,519.700500 245.982620,519.587158 
	C238.215454,519.482117 233.352448,514.352478 231.312103,503.738098 
M249.929047,513.733704 
	C256.197845,509.356537 257.945221,501.392181 254.060043,494.905090 
	C250.870789,489.579926 243.581848,489.106445 239.726944,493.974060 
	C235.669327,499.097565 236.538589,508.148041 241.404099,512.655762 
	C243.778183,514.855286 246.180283,516.115967 249.929047,513.733704 
z"/>
<path fill="#90a179" opacity="1.000000" stroke="none" 
	d="
M293.927826,486.208038 
	C298.251007,487.035767 301.308228,489.387817 301.952881,493.864563 
	C302.679199,498.908417 301.065125,503.069550 295.900177,505.504639 
	C298.386292,509.791748 300.761810,513.888123 303.188599,518.072876 
	C297.362030,519.362915 297.366516,519.360229 294.705566,514.881226 
	C293.519928,512.885498 292.588409,510.641296 291.029022,508.995514 
	C289.729828,507.624329 287.682007,506.962433 284.875580,505.366364 
	C284.875580,510.844757 284.875580,514.612549 284.875580,518.857727 
	C282.770782,518.757996 281.168457,518.682068 279.647827,517.943237 
	C279.818024,508.792175 280.072998,500.300964 279.916870,491.817291 
	C279.850006,488.183929 280.793671,486.684814 284.658752,486.923401 
	C287.722046,487.112518 290.836243,486.477264 293.927826,486.208038 
M284.961060,499.280426 
	C287.423248,503.153687 290.933472,501.249176 293.513245,500.080872 
	C294.897034,499.454193 296.286285,495.827362 295.684753,494.381744 
	C293.709900,489.636017 289.228180,491.268341 284.935760,491.150299 
	C284.935760,493.783722 284.935760,496.067810 284.961060,499.280426 
z"/>
<path fill="#90a179" opacity="1.000000" stroke="none" 
	d="
M385.065247,510.787262 
	C381.454437,510.479004 378.581909,510.550201 378.027679,514.706543 
	C377.466156,518.917419 374.908020,519.693176 370.756012,518.253479 
	C374.634338,507.885223 378.495636,497.562531 382.415192,487.084045 
	C384.727325,487.084045 387.024017,487.084045 389.912201,487.084045 
	C393.760101,497.270660 397.702332,507.707062 401.696747,518.281555 
	C397.737701,519.405212 395.228943,519.291626 394.511810,515.047363 
	C393.583069,509.551056 389.133789,510.936798 385.065247,510.787262 
M387.420837,495.400604 
	C387.093567,494.747467 386.766296,494.094330 386.032257,492.629425 
	C384.449341,497.088196 383.163635,500.709747 381.734985,504.733948 
	C384.835846,504.733948 387.404816,504.733948 390.534882,504.733948 
	C389.520905,501.641937 388.610291,498.865112 387.420837,495.400604 
z"/>
<path fill="#90a179" opacity="1.000000" stroke="none" 
	d="
M525.061768,490.020660 
	C525.004333,489.266113 524.946960,488.511566 525.333618,487.389313 
	C527.164917,486.745514 528.552246,486.469452 529.939514,486.193359 
	C534.154907,491.880676 538.364807,497.572083 542.590210,503.251923 
	C543.475281,504.441620 544.417053,505.589172 545.346313,506.745239 
	C545.352600,506.753113 545.604187,506.631073 545.647034,506.529877 
	C545.773010,506.232239 545.851440,505.914429 546.311279,504.969238 
	C546.916809,498.604553 547.159607,492.875214 547.402466,487.145844 
	C548.101685,487.135345 548.800964,487.124817 549.500183,487.114319 
	C549.669312,489.352478 549.908997,491.587952 549.994751,493.829315 
	C550.302063,501.861206 550.557190,509.895081 550.832031,517.928223 
	C547.965576,520.136108 546.211304,518.629883 544.566895,516.185974 
	C540.089172,509.531128 535.531616,502.929993 530.106201,496.631500 
	C530.106201,503.824005 530.106201,511.016510 530.106201,518.650208 
	C528.289062,518.650208 526.887573,518.650208 525.581665,517.995728 
	C525.785278,512.254456 526.045227,507.164886 525.953003,502.081696 
	C525.880005,498.057281 525.374939,494.040710 525.061768,490.020660 
z"/>
<path fill="#90a179" opacity="1.000000" stroke="none" 
	d="
M216.611572,486.564911 
	C216.847565,488.087555 216.847565,489.246185 216.847565,490.848389 
	C212.118118,490.848389 207.517532,490.848389 202.539673,490.848389 
	C202.539673,494.003021 202.539673,496.726074 202.539673,500.234955 
	C205.372696,500.234955 208.289551,500.178558 211.203354,500.249084 
	C214.930939,500.339325 214.929871,500.383392 214.480942,505.157715 
	C210.629211,505.157715 206.715897,505.157715 202.244690,505.157715 
	C202.244690,509.883698 202.244690,514.115356 202.244690,518.586548 
	C200.280380,518.586548 198.883255,518.586548 197.216858,518.586548 
	C197.216858,508.149719 197.216858,497.903168 197.216858,487.412354 
	C203.652893,487.005371 210.014236,486.603149 216.611572,486.564911 
z"/>
<path fill="#90a179" opacity="1.000000" stroke="none" 
	d="
M137.029175,390.973022 
	C127.887283,390.986023 118.743507,391.109222 109.604492,390.953522 
	C106.308098,390.897369 104.888969,391.671356 104.924080,395.346680 
	C105.093971,413.130432 105.096024,430.917633 104.925697,448.701355 
	C104.890038,452.424408 106.410774,453.097382 109.651642,453.050812 
	C120.121300,452.900330 130.594345,452.985382 141.534790,452.979950 
	C141.404388,453.563995 140.809540,454.651947 140.205597,454.657013 
	C128.280701,454.757050 116.354759,454.731537 104.115128,454.731537 
	C104.115128,433.044647 104.115128,411.720673 104.115128,389.944489 
	C114.914917,389.944489 125.505257,389.944489 136.556702,390.245422 
	C137.017807,390.546387 137.029175,390.973053 137.029175,390.973022 
z"/>
<path fill="#90a179" opacity="1.000000" stroke="none" 
	d="
M426.782104,517.888733 
	C425.319611,518.129822 423.857147,518.370911 422.511108,518.001648 
	C422.750610,511.606567 423.002777,505.820404 422.939758,500.037689 
	C422.910248,497.333832 422.271606,494.636597 421.909058,491.936371 
	C421.909058,491.936371 421.778107,491.702789 421.691620,491.228363 
	C418.765503,490.756653 415.925873,490.759399 413.086243,490.762146 
	C412.773468,489.737000 412.460663,488.711884 412.666077,487.339478 
	C417.136017,486.999542 421.088989,486.948547 425.039124,487.031311 
	C428.641937,487.106750 432.241730,487.327057 435.842834,487.483521 
	C435.823456,488.080841 435.804047,488.678162 435.784668,489.275482 
	C433.207275,489.804321 430.629913,490.333130 428.052521,490.861969 
	C428.052521,490.861969 427.660126,491.032776 427.155670,491.165588 
	C426.447327,491.875214 426.243439,492.452026 426.031677,493.495575 
	C426.276581,501.937805 426.529327,509.913269 426.782104,517.888733 
z"/>
<path fill="#90a179" opacity="1.000000" stroke="none" 
	d="
M494.920349,453.984375 
	C490.955597,454.350494 486.990875,454.716644 482.729492,455.110168 
	C482.729492,433.040253 482.729492,411.813721 482.729492,389.934265 
	C486.261932,389.934265 489.676971,389.934265 493.522308,390.249390 
	C493.952637,390.564545 493.905457,391.054199 493.457153,391.037598 
	C492.175842,391.017395 491.342804,391.010498 490.509766,391.010834 
	C484.009857,391.013397 484.005768,391.013824 484.004730,397.454681 
	C484.002258,412.782867 484.005249,428.111023 484.003662,443.439209 
	C484.002686,453.119720 484.000732,453.119720 494.000732,453.168884 
	C494.380798,453.592896 494.650574,453.788635 494.920349,453.984375 
z"/>
<path fill="#90a179" opacity="1.000000" stroke="none" 
	d="
M565.507446,390.034454 
	C562.593750,390.574554 559.223083,391.038086 555.367737,391.568268 
	C555.258118,392.824982 555.027283,394.252869 555.025085,395.681061 
	C554.997559,413.120178 555.108337,430.560455 554.919739,447.997589 
	C554.877869,451.868500 555.898315,453.172180 559.921997,453.099976 
	C570.702271,452.906647 581.490845,453.179108 592.415283,453.662384 
	C592.288086,454.210815 592.083313,454.422791 591.940125,454.694183 
	C579.496338,454.694183 567.052551,454.694183 554.236206,454.694183 
	C554.236206,433.152588 554.236206,411.823700 554.236206,389.957916 
	C557.843140,389.957916 561.446838,389.957916 565.507446,390.034454 
z"/>
<path fill="#90a179" opacity="1.000000" stroke="none" 
	d="
M402.418701,346.493591 
	C401.854401,345.461365 401.060822,343.985046 401.057709,342.507050 
	C400.985107,308.225952 400.982971,273.944641 401.047058,239.663498 
	C401.049866,238.166901 401.805542,236.671707 402.604797,235.323792 
	C402.999054,235.471741 403.009613,235.934616 403.009644,235.934616 
	C402.791504,237.696014 402.382019,239.457581 402.383514,241.218781 
	C402.413025,276.162109 402.490143,311.105408 402.418701,346.493591 
z"/>
<path fill="#90a179" opacity="1.000000" stroke="none" 
	d="
M424.596863,395.515564 
	C425.158020,396.717896 425.933472,398.361481 425.943207,400.009644 
	C426.035706,415.653595 426.178802,431.301666 425.888275,446.940765 
	C425.800659,451.655945 426.965210,453.767120 431.893524,453.044891 
	C433.330444,452.834290 434.852875,453.207062 436.641785,453.577728 
	C433.082916,454.332611 429.218384,454.822235 424.455933,455.425598 
	C424.455933,435.093292 424.455933,415.526154 424.596863,395.515564 
z"/>
<path fill="#90a179" opacity="1.000000" stroke="none" 
	d="
M455.382233,328.915222 
	C454.974670,287.559540 454.981476,246.029190 455.016754,204.498856 
	C455.018433,202.527496 455.272552,200.556381 455.708740,198.293884 
	C456.109161,240.780960 456.212769,283.559296 456.289307,326.337646 
	C456.290741,327.138336 455.971710,327.939606 455.382233,328.915222 
z"/>
<path fill="#90a179" opacity="1.000000" stroke="none" 
	d="
M458.887299,517.956177 
	C457.439911,518.332642 455.992523,518.709167 453.906189,519.251953 
	C453.906189,508.372345 453.906189,498.154968 454.389282,487.481873 
	C457.775604,486.727325 458.054779,488.513519 458.021484,490.779816 
	C457.945770,495.933502 457.885651,501.092285 458.034027,506.242798 
	C458.146667,510.152161 458.590729,514.052002 458.887299,517.956177 
z"/>
<path fill="#90a179" opacity="1.000000" stroke="none" 
	d="
M439.979431,237.480896 
	C440.353180,238.904068 440.949860,240.791626 440.954956,242.680786 
	C441.039337,273.870758 441.049316,305.060883 441.111084,336.733093 
	C440.761902,336.046112 440.044830,334.877930 440.041809,333.707886 
	C439.959076,301.787384 439.949219,269.866669 439.979431,237.480896 
z"/>
<path fill="#90a179" opacity="1.000000" stroke="none" 
	d="
M117.345932,427.218628 
	C122.504967,426.705719 128.038620,426.084290 133.571259,426.093170 
	C137.104462,426.098816 138.250809,424.930206 138.067856,421.489594 
	C137.933640,418.965515 137.152435,417.905762 134.547256,417.977661 
	C129.899399,418.106049 125.241623,418.111603 120.595924,417.945953 
	C119.112518,417.893036 117.654213,417.136017 116.104736,416.294525 
	C123.435402,415.887848 130.845764,415.887848 138.630890,415.887848 
	C138.630890,419.991028 138.630890,423.371155 138.630890,427.377106 
	C131.774246,427.377106 124.747177,427.377106 117.345932,427.218628 
z"/>
<path fill="#90a179" opacity="1.000000" stroke="none" 
	d="
M386.800964,276.507874 
	C387.155487,277.877563 387.935089,279.707550 387.941467,281.540192 
	C388.026672,306.001801 388.003632,330.463806 388.004578,355.383087 
	C387.638763,354.235443 386.964905,352.631470 386.959534,351.025238 
	C386.877258,326.340118 386.882050,301.654724 386.800964,276.507874 
z"/>
<path fill="#90a179" opacity="1.000000" stroke="none" 
	d="
M308.832367,453.954865 
	C308.136444,454.261200 307.440247,454.834900 306.744659,454.834137 
	C294.688324,454.821075 282.632080,454.737396 270.576599,454.208710 
	C270.848145,453.562958 271.029694,453.312927 271.577484,452.998718 
	C283.974609,452.998657 295.916321,452.997986 307.961365,453.210022 
	C308.264496,453.681030 308.520386,453.858398 308.832367,453.954865 
z"/>
<path fill="#90a179" opacity="1.000000" stroke="none" 
	d="
M493.950867,200.469528 
	C494.343689,201.233673 494.946472,202.461288 494.949371,203.690308 
	C495.003571,226.601974 494.989319,249.513779 494.969543,272.425568 
	C494.968994,273.071991 494.749268,273.718201 494.351257,274.667572 
	C494.007690,250.291626 493.944611,225.612625 493.950867,200.469528 
z"/>
<path fill="#90a179" opacity="1.000000" stroke="none" 
	d="
M345.110291,350.551819 
	C344.696259,349.804535 344.051147,348.591888 344.047974,347.377563 
	C343.988708,324.678284 343.997620,301.978851 344.034973,279.279480 
	C344.036499,278.340210 344.453918,277.401581 345.066010,276.260132 
	C345.375092,298.083344 345.296051,320.109131 345.215973,342.134888 
	C345.206329,344.785156 345.190826,347.435425 345.110291,350.551819 
z"/>
<path fill="#90a179" opacity="1.000000" stroke="none" 
	d="
M271.122101,452.998138 
	C271.029694,453.312927 270.848145,453.562958 270.365723,453.851379 
	C270.082916,433.629181 270.010315,413.303864 269.946167,392.978546 
	C269.943604,392.170197 270.021332,391.361603 270.089142,390.000732 
	C273.841125,390.000732 277.447357,390.000732 281.510406,390.276306 
	C281.967194,390.551910 281.975983,390.963867 281.516724,390.965332 
	C277.829468,390.966766 274.601471,390.966766 271.122101,390.966766 
	C271.122101,412.253235 271.122101,432.625671 271.122101,452.998138 
z"/>
<path fill="#90a179" opacity="1.000000" stroke="none" 
	d="
M508.221863,454.447144 
	C509.471863,453.855713 511.147461,453.073669 512.830933,453.056366 
	C523.477478,452.947113 534.125732,453.007263 545.218201,453.015076 
	C544.421936,453.623962 543.183899,454.746460 541.939331,454.753662 
	C530.843872,454.817719 519.747314,454.684937 508.221863,454.447144 
z"/>
<path fill="#90a179" opacity="1.000000" stroke="none" 
	d="
M493.905457,391.054199 
	C493.905457,391.054199 493.952637,390.564545 493.979858,390.320129 
	C494.382355,391.685059 495.077515,393.293091 495.084259,394.904022 
	C495.165344,414.293365 495.144562,433.683167 495.035339,453.528625 
	C494.650574,453.788635 494.380798,453.592896 494.033966,452.707275 
	C493.939758,431.696320 493.922607,411.375275 493.905457,391.054199 
z"/>
<path fill="#90a179" opacity="1.000000" stroke="none" 
	d="
M324.488892,390.045593 
	C321.913269,390.565094 318.880371,391.029114 314.700256,391.668701 
	C314.700256,406.680695 314.700256,421.987457 314.441101,437.609497 
	C314.181976,422.130341 314.181976,406.335876 314.181976,389.990143 
	C317.490417,389.990143 320.761047,389.990143 324.488892,390.045593 
z"/>
<path fill="#90a179" opacity="1.000000" stroke="none" 
	d="
M360.465271,390.061462 
	C357.876160,390.573914 354.833496,391.020844 350.988739,391.585632 
	C350.988739,393.678497 351.013214,395.934784 350.984650,398.190399 
	C350.831482,410.287872 350.665100,422.385162 350.162720,434.736023 
	C349.822174,420.186127 349.822174,405.382751 349.822174,389.995911 
	C353.467590,389.995911 356.739685,389.995911 360.465271,390.061462 
z"/>
<path fill="#90a179" opacity="1.000000" stroke="none" 
	d="
M550.922791,517.471802 
	C550.557190,509.895081 550.302063,501.861206 549.994751,493.829315 
	C549.908997,491.587952 549.669312,489.352478 549.500183,487.114319 
	C548.800964,487.124817 548.101685,487.135345 547.402466,487.145844 
	C547.159607,492.875214 546.916809,498.604553 546.398071,504.638031 
	C546.122253,498.811188 546.122253,492.680267 546.122253,486.273773 
	C547.611023,486.273773 549.019165,486.273773 551.013550,486.273773 
	C551.013550,496.487030 551.013550,506.751221 550.922791,517.471802 
z"/>
<path fill="#90a179" opacity="1.000000" stroke="none" 
	d="
M141.908691,447.513702 
	C140.233109,446.962433 138.674149,445.253723 136.997711,445.129425 
	C131.944321,444.754761 126.843353,445.073578 121.765091,444.950439 
	C120.248108,444.913666 118.744812,444.312622 117.124260,443.592773 
	C125.127678,443.215485 133.242081,443.215485 141.737320,443.215485 
	C141.819656,444.573761 141.895645,445.827209 141.908691,447.513702 
z"/>
<path fill="#90a179" opacity="1.000000" stroke="none" 
	d="
M281.975983,390.963867 
	C281.975983,390.963867 281.967194,390.551910 281.968018,390.345947 
	C282.313293,391.788605 282.948822,393.435791 282.957001,395.086060 
	C283.034332,410.734894 283.005005,426.384247 282.783203,442.538696 
	C282.559967,443.043976 282.062744,443.079407 282.038727,442.603394 
	C282.001801,425.072876 281.988892,408.018372 281.975983,390.963867 
z"/>
<path fill="#90a179" opacity="1.000000" stroke="none" 
	d="
M520.172852,442.512268 
	C519.826782,441.311646 519.054077,439.650818 519.044067,437.985382 
	C518.950073,422.319885 518.986328,406.653595 518.995667,390.523193 
	C519.348206,391.525848 519.978760,392.991089 519.987488,394.460052 
	C520.081299,410.323029 520.077332,426.186554 520.172852,442.512268 
z"/>
<path fill="#90a179" opacity="1.000000" stroke="none" 
	d="
M293.474609,486.107727 
	C290.836243,486.477264 287.722046,487.112518 284.658752,486.923401 
	C280.793671,486.684814 279.850006,488.183929 279.916870,491.817291 
	C280.072998,500.300964 279.818024,508.792175 279.475464,517.597473 
	C279.221405,507.476105 279.221405,497.037598 279.221405,486.007416 
	C283.850708,486.007416 288.436066,486.007416 293.474609,486.107727 
z"/>
<path fill="#90a179" opacity="1.000000" stroke="none" 
	d="
M327.041931,433.541504 
	C326.660217,432.289734 326.044159,430.572052 326.032379,428.850250 
	C325.945923,416.228943 325.980530,403.606781 325.986877,390.520294 
	C326.355011,391.509766 327.014404,392.961792 327.024200,394.418182 
	C327.110748,407.302917 327.082031,420.188416 327.041931,433.541504 
z"/>
<path fill="#90a179" opacity="1.000000" stroke="none" 
	d="
M329.931580,307.464844 
	C330.265808,308.699280 330.938416,310.401001 330.951874,312.107910 
	C331.049011,324.417999 331.012665,336.729126 331.015289,349.506714 
	C330.660950,348.505188 330.014618,347.038727 330.005371,345.568268 
	C329.926300,333.024109 329.962891,320.479187 329.931580,307.464844 
z"/>
<path fill="#90a179" opacity="1.000000" stroke="none" 
	d="
M428.499939,490.911255 
	C430.629913,490.333130 433.207275,489.804321 435.784668,489.275482 
	C435.804047,488.678162 435.823456,488.080841 435.842834,487.483521 
	C432.241730,487.327057 428.641937,487.106750 425.039124,487.031311 
	C421.088989,486.948547 417.136017,486.999542 412.735992,486.984070 
	C414.751953,486.633118 417.210205,486.057770 419.681641,485.994324 
	C425.413666,485.847229 431.152008,485.947510 437.243408,485.947510 
	C437.343689,487.654999 437.425079,489.041473 437.537750,490.960541 
	C434.441681,490.960541 431.694550,490.960541 428.499939,490.911255 
z"/>
<path fill="#90a179" opacity="1.000000" stroke="none" 
	d="
M354.097351,517.538818 
	C353.663666,515.433777 353.094025,512.873840 353.050018,510.304901 
	C352.922089,502.833221 353.004669,495.357971 353.004669,487.381256 
	C351.041779,487.246552 349.452606,487.137482 347.424408,487.022034 
	C349.063477,486.517365 351.141602,486.019104 354.201599,485.285400 
	C354.201599,496.447174 354.201599,506.763458 354.097351,517.538818 
z"/>
<path fill="#90a179" opacity="1.000000" stroke="none" 
	d="
M137.439087,390.990662 
	C137.029175,390.973053 137.017807,390.546387 137.019608,390.333008 
	C138.165787,390.119629 139.310150,390.119629 140.751617,390.119629 
	C140.751617,393.525635 140.751617,396.918915 140.751617,401.071655 
	C132.917862,401.071655 124.934029,401.071655 116.488922,401.149933 
	C118.024277,400.823181 120.012802,400.124084 122.019043,400.068848 
	C127.769577,399.910522 133.527283,400.013123 140.967529,400.013123 
	C139.704620,396.366455 138.776810,393.687378 137.439087,390.990662 
z"/>
<path fill="#90a179" opacity="1.000000" stroke="none" 
	d="
M326.468994,486.116882 
	C325.193756,486.632202 323.480530,487.055450 320.713531,487.738983 
	C320.713531,497.411896 320.713531,507.391937 320.420959,517.666626 
	C320.128387,507.506714 320.128387,497.052277 320.128387,486.024750 
	C322.194672,486.024750 324.112823,486.024750 326.468994,486.116882 
z"/>
<path fill="#90a179" opacity="1.000000" stroke="none" 
	d="
M456.506561,197.223145 
	C456.538147,196.929565 457.026825,196.176926 457.510101,196.180344 
	C469.507538,196.265503 481.504456,196.430603 493.731873,196.942078 
	C481.628601,197.240540 469.294861,197.178436 456.506561,197.223145 
z"/>
<path fill="#90a179" opacity="1.000000" stroke="none" 
	d="
M403.476196,235.975342 
	C403.009613,235.934616 402.999054,235.471741 403.004395,235.240417 
	C413.750000,234.991989 424.490295,234.951279 435.230408,234.985779 
	C436.672028,234.990417 438.112457,235.374466 439.757629,235.964920 
	C427.955444,236.236694 415.949097,236.126373 403.476196,235.975342 
z"/>
<path fill="#90a179" opacity="1.000000" stroke="none" 
	d="
M282.062744,443.079407 
	C282.062744,443.079407 282.559967,443.043976 282.806061,443.004700 
	C291.485901,442.965393 299.919678,442.965393 309.027771,442.965393 
	C309.027771,446.556824 309.027771,449.804657 308.930054,453.503693 
	C308.520386,453.858398 308.264496,453.681030 308.012573,452.756531 
	C307.960449,449.519867 307.960449,446.949432 307.960449,443.990479 
	C303.665161,443.990479 300.198639,444.102905 296.742279,443.963593 
	C291.845154,443.766174 286.955566,443.383118 282.062744,443.079407 
z"/>
<path fill="#90a179" opacity="1.000000" stroke="none" 
	d="
M458.994507,517.500977 
	C458.590729,514.052002 458.146667,510.152161 458.034027,506.242798 
	C457.885651,501.092285 457.945770,495.933502 458.021484,490.779816 
	C458.054779,488.513519 457.775604,486.727325 454.452118,487.017242 
	C455.543457,486.572021 457.055084,486.135681 459.101715,485.544891 
	C459.101715,496.626007 459.101715,506.835907 458.994507,517.500977 
z"/>
<path fill="#90a179" opacity="1.000000" stroke="none" 
	d="
M292.498047,307.199524 
	C293.674072,306.865356 295.302399,306.071869 296.939758,306.052765 
	C306.640503,305.939606 316.343292,306.006104 326.518188,306.221863 
	C326.990967,306.431519 326.992126,306.835571 326.992126,306.835571 
	C315.646271,306.923065 304.300385,307.010529 292.498047,307.199524 
z"/>
<path fill="#90a179" opacity="1.000000" stroke="none" 
	d="
M458.762939,452.580688 
	C463.055267,452.141968 467.402069,452.099609 472.174316,451.871613 
	C473.043671,452.502838 473.487610,453.319672 473.931549,454.136536 
	C473.779449,454.638794 473.627319,455.141052 473.475220,455.643311 
	C468.589264,454.754547 463.703339,453.865784 458.762939,452.580688 
z"/>
<path fill="#90a179" opacity="1.000000" stroke="none" 
	d="
M524.995850,490.484039 
	C525.374939,494.040710 525.880005,498.057281 525.953003,502.081696 
	C526.045227,507.164886 525.785278,512.254456 525.403198,517.648071 
	C525.062805,508.952362 524.996399,499.949890 524.995850,490.484039 
z"/>
<path fill="#90a179" opacity="1.000000" stroke="none" 
	d="
M592.454590,443.153809 
	C584.459045,443.371399 576.014221,443.472198 567.284851,443.263977 
	C575.335327,442.982300 583.670288,443.009674 592.454590,443.153809 
z"/>
<path fill="#90a179" opacity="1.000000" stroke="none" 
	d="
M421.836700,492.406219 
	C422.271606,494.636597 422.910248,497.333832 422.939758,500.037689 
	C423.002777,505.820404 422.750610,511.606567 422.338470,517.690186 
	C421.954376,509.618073 421.859375,501.247070 421.836700,492.406219 
z"/>
<path fill="#90a179" opacity="1.000000" stroke="none" 
	d="
M426.879456,517.436768 
	C426.529327,509.913269 426.276581,501.937805 426.239594,493.489563 
	C426.455383,493.016754 426.872162,493.018707 426.872192,493.018707 
	C426.907074,501.007416 426.941925,508.996094 426.879456,517.436768 
z"/>
<path fill="#90a179" opacity="1.000000" stroke="none" 
	d="
M544.466919,443.128296 
	C537.160034,443.374969 529.398987,443.521790 521.335693,443.386475 
	C528.693176,443.079041 536.352966,443.053741 544.466919,443.128296 
z"/>
<path fill="#90a179" opacity="1.000000" stroke="none" 
	d="
M116.148544,442.508148 
	C116.013687,437.801544 115.839241,432.631409 116.049950,427.257080 
	C116.326393,432.050140 116.217682,437.047363 116.148544,442.508148 
z"/>
<path fill="#90a179" opacity="1.000000" stroke="none" 
	d="
M413.521515,490.855286 
	C415.925873,490.759399 418.765503,490.756653 421.784485,491.131958 
	C419.294830,491.322754 416.625793,491.135590 413.521515,490.855286 
z"/>
<path fill="#90a179" opacity="1.000000" stroke="none" 
	d="
M529.552856,486.107361 
	C528.552246,486.469452 527.164917,486.745514 525.403931,487.015503 
	C526.408813,486.680023 527.787476,486.350677 529.552856,486.107361 
z"/>
<path fill="#90a179" opacity="1.000000" stroke="none" 
	d="
M327.362579,306.907166 
	C326.992126,306.835571 326.990967,306.431519 326.985535,306.229858 
	C327.858826,306.197876 328.737549,306.367584 329.806122,306.823120 
	C329.241669,307.065552 328.487335,307.022156 327.362579,306.907166 
z"/>
<path fill="#90a179" opacity="1.000000" stroke="none" 
	d="
M592.210693,454.790070 
	C592.083313,454.422791 592.288086,454.210815 592.730713,453.918793 
	C592.906921,453.779327 593.233948,453.848145 593.399597,453.865753 
	C593.203979,454.217560 592.842651,454.551758 592.210693,454.790070 
z"/>
<path fill="#90a179" opacity="1.000000" stroke="none" 
	d="
M456.855591,449.356720 
	C457.177521,449.517487 457.551605,449.977905 457.933105,450.758179 
	C457.596283,450.604187 457.252014,450.130280 456.855591,449.356720 
z"/>
<path fill="#90a179" opacity="1.000000" stroke="none" 
	d="
M471.259766,449.525208 
	C470.894348,449.384979 470.498230,448.943939 470.125000,448.172791 
	C470.508270,448.303284 470.868652,448.763824 471.259766,449.525208 
z"/>
<path fill="#90a179" opacity="1.000000" stroke="none" 
	d="
M343.357483,354.024384 
	C343.502563,353.608765 343.999939,353.298279 344.806671,352.978943 
	C344.647247,353.356567 344.178528,353.743042 343.357483,354.024384 
z"/>
<path fill="#90a179" opacity="1.000000" stroke="none" 
	d="
M470.179443,447.603241 
	C469.830231,447.431885 469.452972,446.944214 469.077148,446.122467 
	C469.436157,446.287933 469.793762,446.787445 470.179443,447.603241 
z"/>
<path fill="#90a179" opacity="1.000000" stroke="none" 
	d="
M426.956482,492.693237 
	C426.872162,493.018707 426.455383,493.016754 426.247467,493.022766 
	C426.243439,492.452026 426.447327,491.875214 426.941711,491.168762 
	C427.168427,491.481995 427.104645,491.924866 426.956482,492.693237 
z"/>
<path fill="#90a179" opacity="1.000000" stroke="none" 
	d="
M457.970215,451.305115 
	C458.186768,451.254303 458.459808,451.468719 458.776855,451.949036 
	C458.556122,452.000031 458.291382,451.785156 457.970215,451.305115 
z"/>
<path fill="#90a179" opacity="1.000000" stroke="none" 
	d="
M472.026306,450.747040 
	C471.802094,450.792297 471.534332,450.560150 471.223724,450.058014 
	C471.448151,450.015259 471.715454,450.242462 472.026306,450.747040 
z"/>
<path fill="none" opacity="0.0" stroke="none" 
	d="
M324.015381,131.697067 
	C322.837891,118.752594 332.278687,110.062485 340.414490,108.043083 
	C351.396240,105.317291 361.855499,109.940994 366.350830,119.608139 
	C370.212463,127.912476 370.067322,136.162781 364.057556,143.446075 
	C357.731598,151.112488 349.414734,153.575195 339.903198,150.653503 
	C330.848022,147.871979 325.428650,141.644241 324.015381,131.697067 
z"/>
<path fill="none" opacity="0.0" stroke="none" 
	d="
M234.751038,444.008392 
	C225.029587,443.835724 219.118912,438.449158 218.304092,427.893738 
	C217.867584,422.239105 218.723206,416.291504 220.082855,410.742523 
	C221.632019,404.420044 226.517075,401.085632 232.304520,400.771393 
	C238.763275,400.420807 243.274033,403.530426 245.788254,409.131653 
	C249.622559,417.673889 249.801834,426.491394 246.324524,435.267670 
	C244.319916,440.327087 240.615799,443.290863 234.751038,444.008392 
z"/>
<path fill="none" opacity="0.0" stroke="none" 
	d="
M483.069763,505.463318 
	C483.344818,502.105164 483.174164,499.015686 484.059875,496.266510 
	C485.661469,491.295135 491.043762,489.218353 495.744019,491.255188 
	C500.642456,493.377899 502.801758,499.830719 500.950012,506.812714 
	C499.620483,511.825592 495.677795,514.561829 490.628448,513.934692 
	C485.895874,513.346802 484.077698,510.001648 483.069763,505.463318 
z"/>
<path fill="none" opacity="0.0" stroke="none" 
	d="
M249.601807,513.943237 
	C246.180283,516.115967 243.778183,514.855286 241.404099,512.655762 
	C236.538589,508.148041 235.669327,499.097565 239.726944,493.974060 
	C243.581848,489.106445 250.870789,489.579926 254.060043,494.905090 
	C257.945221,501.392181 256.197845,509.356537 249.601807,513.943237 
z"/>
<path fill="none" opacity="0.0" stroke="none" 
	d="
M284.948425,498.816162 
	C284.935760,496.067810 284.935760,493.783722 284.935760,491.150299 
	C289.228180,491.268341 293.709900,489.636017 295.684753,494.381744 
	C296.286285,495.827362 294.897034,499.454193 293.513245,500.080872 
	C290.933472,501.249176 287.423248,503.153687 284.948425,498.816162 
z"/>
<path fill="none" opacity="0.0" stroke="none" 
	d="
M387.560242,495.744446 
	C388.610291,498.865112 389.520905,501.641937 390.534882,504.733948 
	C387.404816,504.733948 384.835846,504.733948 381.734985,504.733948 
	C383.163635,500.709747 384.449341,497.088196 386.032257,492.629425 
	C386.766296,494.094330 387.093567,494.747467 387.560242,495.744446 
z"/>
<path fill="#90a179" opacity="1.000000" stroke="none" 
	d="
M493.457153,391.037598 
	C493.922607,411.375275 493.939758,431.696320 493.923645,452.479004 
	C484.000732,453.119720 484.002686,453.119720 484.003662,443.439209 
	C484.005249,428.111023 484.002258,412.782867 484.004730,397.454681 
	C484.005768,391.013824 484.009857,391.013397 490.509766,391.010834 
	C491.342804,391.010498 492.175842,391.017395 493.457153,391.037598 
z"/>
<path fill="#90a179" opacity="1.000000" stroke="none" 
	d="
M282.038727,442.603394 
	C286.955566,443.383118 291.845154,443.766174 296.742279,443.963593 
	C300.198639,444.102905 303.665161,443.990479 307.960449,443.990479 
	C307.960449,446.949432 307.960449,449.519867 307.909241,452.543762 
	C295.916321,452.997986 283.974609,452.998657 271.577484,452.998718 
	C271.122101,432.625671 271.122101,412.253235 271.122101,390.966766 
	C274.601471,390.966766 277.829468,390.966766 281.516724,390.965332 
	C281.988892,408.018372 282.001801,425.072876 282.038727,442.603394 
z"/>
</svg>